<svg width="20" height="20" viewBox="0 0 20 20" fill="none" xmlns="http://www.w3.org/2000/svg">
<path fill-rule="evenodd" clip-rule="evenodd" d="M7.39592 7.35702C6.77377 8.3358 6.25785 9.37908 5.84815 10.4869L9.51271 14.1516C10.6204 13.7419 11.6674 13.2259 12.6538 12.6038C13.6401 11.9816 14.5278 11.276 15.3168 10.4869C16.6522 9.15146 17.6461 7.62637 18.2986 5.9116C18.9511 4.19684 19.1483 2.59588 18.8904 1.10873C17.4033 0.850759 15.8024 1.05183 14.0877 1.71194C12.373 2.37205 10.848 3.3698 9.51271 4.7052C8.72366 5.49429 8.01806 6.37823 7.39592 7.35702ZM13.4846 8.0968C13.0369 8.0968 12.6614 7.94505 12.3579 7.64155C12.0544 7.33805 11.9026 6.96247 11.9026 6.51481C11.9026 6.06715 12.0544 5.69157 12.3579 5.38807C12.6614 5.08457 13.0369 4.93282 13.4846 4.93282C13.9322 4.93282 14.3078 5.08457 14.6112 5.38807C14.9147 5.69157 15.0665 6.06715 15.0665 6.51481C15.0665 6.96247 14.9147 7.33805 14.6112 7.64155C14.3078 7.94505 13.9322 8.0968 13.4846 8.0968Z" fill="#A19EA5"/>
<path d="M3.30161 13.343C3.76504 12.8795 4.32777 12.6445 4.98981 12.6379C5.65186 12.6313 6.21459 12.8597 6.67802 13.3231C7.14145 13.7866 7.37316 14.3493 7.37316 15.0114C7.37316 15.6735 7.14145 16.2363 6.67802 16.6997C6.33376 17.044 5.79751 17.3287 5.06926 17.5538C4.34101 17.7789 3.25527 17.9908 1.81202 18.1894C2.01063 16.7461 2.22248 15.6636 2.44758 14.9419C2.67267 14.2202 2.95735 13.6873 3.30161 13.343Z" fill="#A19EA5"/>
<path d="M10.4215 15.7379L11.8449 19L15.1463 15.6984C15.3308 15.5139 15.4626 15.2931 15.5417 15.0361C15.6208 14.7791 15.6339 14.5188 15.5812 14.2552L15.3045 12.7329C14.4873 13.4578 13.7131 14.0443 12.9816 14.4924C12.2501 14.9406 11.3968 15.3557 10.4215 15.7379Z" fill="#A19EA5"/>
<path d="M1 8.24853L4.26205 9.67189C4.64427 8.69662 5.05944 7.84326 5.50756 7.11181C5.95568 6.38035 6.54219 5.60607 7.26709 4.78895L5.7448 4.51218C5.4812 4.45946 5.2209 4.47264 4.96389 4.55172C4.70688 4.63079 4.48611 4.76259 4.30159 4.9471L1 8.24853Z" fill="#A19EA5"/>
</svg>
