<svg width="16" height="16" viewBox="0 0 16 16" fill="none" xmlns="http://www.w3.org/2000/svg">
<path fill-rule="evenodd" clip-rule="evenodd" d="M8.21895 1.04454C8.28836 1.07394 8.3514 1.11703 8.40447 1.17135L11.8322 4.67083C11.9123 4.7524 11.9668 4.85642 11.989 4.9697C12.0111 5.08297 11.9998 5.20041 11.9565 5.30711C11.9131 5.41381 11.8398 5.50498 11.7456 5.56906C11.6515 5.63313 11.5408 5.66722 11.4277 5.66702L4.5723 5.66702C4.45917 5.66722 4.34852 5.63313 4.25438 5.56906C4.16025 5.50498 4.08687 5.41381 4.04354 5.30711C4.00022 5.20041 3.98891 5.08297 4.01103 4.9697C4.03316 4.85642 4.08774 4.7524 4.16784 4.67083L7.59553 1.17135C7.6486 1.11703 7.71164 1.07394 7.78105 1.04454C7.85045 1.01514 7.92486 1 8 1C8.07514 1 8.14955 1.01514 8.21895 1.04454ZM4.5723 10.333L11.4277 10.333C11.5408 10.3328 11.6515 10.3669 11.7456 10.4309C11.8398 10.495 11.9131 10.5862 11.9565 10.6929C11.9998 10.7996 12.0111 10.917 11.989 11.0303C11.9668 11.1436 11.9123 11.2476 11.8322 11.3292L8.40447 14.8286C8.3514 14.883 8.28836 14.9261 8.21895 14.9555C8.14955 14.9849 8.07514 15 8 15C7.92486 15 7.85045 14.9849 7.78105 14.9555C7.71164 14.9261 7.6486 14.883 7.59553 14.8286L4.16784 11.3292C4.08774 11.2476 4.03316 11.1436 4.01103 11.0303C3.98891 10.917 4.00022 10.7996 4.04354 10.6929C4.08687 10.5862 4.16025 10.495 4.25438 10.4309C4.34852 10.3669 4.45917 10.3328 4.5723 10.333Z" fill="#A19EA5"/>
</svg>
