<svg width="16" height="16" viewBox="0 0 16 16" fill="none" xmlns="http://www.w3.org/2000/svg">
<path d="M11.8562 5H4.14384C4.01656 4.99974 3.89208 5.04357 3.78618 5.12594C3.68028 5.20832 3.59773 5.32552 3.54899 5.4627C3.50025 5.59988 3.48752 5.75086 3.51241 5.89649C3.53731 6.04212 3.5987 6.17584 3.68882 6.28071L7.54497 10.7797C7.60467 10.8495 7.6756 10.9049 7.75368 10.9427C7.83176 10.9805 7.91546 11 8 11C8.08454 11 8.16824 10.9805 8.24632 10.9427C8.3244 10.9049 8.39533 10.8495 8.45503 10.7797L12.3112 6.28071C12.4013 6.17584 12.4627 6.04212 12.4876 5.89649C12.5125 5.75086 12.4998 5.59988 12.451 5.4627C12.4023 5.32552 12.3197 5.20832 12.2138 5.12594C12.1079 5.04357 11.9834 4.99974 11.8562 5Z" fill="#A19EA5"/>
</svg>
