<svg width="20" height="20" viewBox="0 0 20 20" fill="none" xmlns="http://www.w3.org/2000/svg">
<path fill-rule="evenodd" clip-rule="evenodd" d="M2.74999 11.4999H8.74994C9.16394 11.4999 9.49994 11.1639 9.49994 10.7499V1.74999C9.49994 1.336 9.16394 1 8.74994 1H2.74999C2.336 1 2 1.336 2 1.74999V10.7499C2 11.1639 2.336 11.4999 2.74999 11.4999ZM2.74999 19H8.74994C9.16394 19 9.49994 18.664 9.49994 18.25V13.75C9.49994 13.336 9.16394 13 8.74994 13H2.74999C2.336 13 2 13.336 2 13.75V18.25C2 18.664 2.336 19 2.74999 19ZM17.7499 6.99995H11.7499C11.3359 6.99995 10.9999 6.66395 10.9999 6.24996V1.74999C10.9999 1.336 11.3359 1 11.7499 1H17.7499C18.1639 1 18.4999 1.336 18.4999 1.74999V6.24996C18.4999 6.66395 18.1639 6.99995 17.7499 6.99995ZM11.7499 19H17.7499C18.1639 19 18.4999 18.664 18.4999 18.25V9.25008C18.4999 8.83608 18.1639 8.50009 17.7499 8.50009H11.7499C11.3359 8.50009 10.9999 8.83608 10.9999 9.25008V18.25C10.9999 18.664 11.3359 19 11.7499 19Z" fill="#A6A3AF"/>
</svg>
