<svg width="20" height="20" viewBox="0 0 20 20" fill="none" xmlns="http://www.w3.org/2000/svg">
<path d="M6.13432 15.2379C5.85145 14.0254 4.5752 13.034 4.05137 12.3806C3.15436 11.2599 2.5922 9.90854 2.42964 8.48228C2.26707 7.05602 2.51072 5.61285 3.13252 4.31901C3.75431 3.02517 4.72895 1.9333 5.94418 1.16918C7.1594 0.40506 8.56576 -0.000229765 10.0013 9.77221e-08C11.4367 0.000229961 12.843 0.40597 14.058 1.17048C15.2729 1.93499 16.2472 3.02717 16.8686 4.32121C17.49 5.61524 17.7332 7.05849 17.5702 8.4847C17.4071 9.91091 16.8445 11.2621 15.9472 12.3825C15.4233 13.0349 14.149 14.0264 13.8661 15.2379H6.13432ZM13.8099 17.1427V18.0951C13.8099 18.6003 13.6092 19.0849 13.252 19.4421C12.8948 19.7993 12.4103 20 11.9051 20H8.09537C7.59017 20 7.10566 19.7993 6.74843 19.4421C6.39121 19.0849 6.19052 18.6003 6.19052 18.0951V17.1427H13.8099ZM10.9526 6.82208V3.00761L6.66673 8.72693H9.04779V12.5366L13.3337 6.82208H10.9526Z" fill="#A6A3AF"/>
</svg>
