<svg width="20" height="20" viewBox="0 0 20 20" fill="none" xmlns="http://www.w3.org/2000/svg">
<g clip-path="url(#clip0_20695_219)">
<path d="M19.8152 18.064L14.616 9.584V5.28H15.2699C15.4434 5.28 15.6097 5.21257 15.7324 5.09255C15.855 4.97253 15.9239 4.80974 15.9239 4.64C15.9239 4.47026 15.855 4.30748 15.7324 4.18745C15.6097 4.06743 15.4434 4 15.2699 4H8.73006C8.55661 4 8.39026 4.06743 8.26762 4.18745C8.14497 4.30748 8.07607 4.47026 8.07607 4.64C8.07607 4.80974 8.14497 4.97253 8.26762 5.09255C8.39026 5.21257 8.55661 5.28 8.73006 5.28H9.38405V9.584L6.09775 14.936C6.09775 14.944 6.08958 14.952 6.08958 14.96L4.18484 18.064C4.06648 18.2581 4.00274 18.4793 4.00009 18.7053C3.99743 18.9313 4.05597 19.1539 4.16974 19.3506C4.28351 19.5473 4.44846 19.7109 4.64782 19.825C4.84719 19.9391 5.07386 19.9994 5.30479 20H18.6952C18.9261 19.9994 19.1528 19.9391 19.3522 19.825C19.5515 19.7109 19.7165 19.5473 19.8303 19.3506C19.944 19.1539 20.0026 18.9313 19.9999 18.7053C19.9973 18.4793 19.9335 18.2581 19.8152 18.064ZM10.504 10.24C10.6265 10.0421 10.6915 9.81533 10.692 9.584V5.28H13.308V9.584C13.3085 9.81533 13.3735 10.0421 13.496 10.24L16.6678 15.424C15.5969 15.992 14.1009 15.832 12.2943 14.944C11.1253 14.376 9.62112 13.864 8.18234 14.032L10.504 10.24Z" fill="white"/>
<path fill-rule="evenodd" clip-rule="evenodd" d="M3.47502 0.175736C3.71623 -0.0585786 4.1073 -0.0585786 4.34851 0.175736L6.8191 2.57574C7.0603 2.81005 7.0603 3.18995 6.8191 3.42426L4.34851 5.82426C4.1073 6.05858 3.71623 6.05858 3.47502 5.82426C3.23382 5.58995 3.23382 5.21005 3.47502 4.97574L4.89122 3.6H0.617647C0.27653 3.6 0 3.33137 0 3C0 2.66863 0.27653 2.4 0.617647 2.4H4.89122L3.47502 1.02426C3.23382 0.78995 3.23382 0.410051 3.47502 0.175736Z" fill="white"/>
</g>
<defs>
<clipPath id="clip0_20695_219">
<rect width="20" height="20" fill="white"/>
</clipPath>
</defs>
</svg>
