<svg width="32" height="32" viewBox="0 0 32 32" fill="none" xmlns="http://www.w3.org/2000/svg">
<path d="M15.9996 13.1302V0C15.7685 0.000166564 15.5434 0.0727699 15.3554 0.207669L3.13183 8.97521C2.98259 9.08205 2.86212 9.22444 2.78125 9.38958L11.9994 15.9992L15.9996 13.1302Z" fill="#72CAF0"/>
<path d="M19.9997 15.9991L29.2194 9.38798C29.1386 9.22278 29.0181 9.08038 28.8688 8.9736L16.6452 0.207669C16.4569 0.0724717 16.2311 -0.000145487 15.9995 2.18838e-07V13.1302L19.9997 15.9991Z" fill="#F53F52"/>
<path d="M15.9995 18.8693V32.0001C16.2311 32.0003 16.4569 31.9277 16.6452 31.7925L28.8688 23.0265C29.0181 22.9198 29.1386 22.7773 29.2194 22.6121L19.9997 16.001L15.9995 18.8693Z" fill="#72CAF0"/>
<path d="M19.9995 16.0028L29.2192 22.6139C29.2941 22.4613 29.3331 22.2935 29.3333 22.1234V9.88214C29.3331 9.71202 29.2941 9.54422 29.2192 9.3916L19.9995 16.0028Z" fill="white"/>
<path d="M11.9992 16.001L2.78076 22.6121C2.86164 22.7773 2.9821 22.9197 3.13135 23.0265L15.3553 31.7925C15.5435 31.9276 15.7692 32.0002 16.0007 32.0001V18.8693L11.9992 16.001Z" fill="#8E4FF6"/>
<path d="M2.78085 9.3916C2.70585 9.54417 2.66681 9.712 2.66675 9.88214V22.1234C2.66681 22.2935 2.70585 22.4614 2.78085 22.6139L11.9993 16.0028L2.78085 9.3916Z" fill="white"/>
</svg>
