<svg width="117" height="32" viewBox="0 0 117 32" fill="none" xmlns="http://www.w3.org/2000/svg">
<path d="M47.3679 9.33252V22.421H45.1257L39.514 14.2321V22.421H36.8818V9.33252H39.3011L44.736 17.3166V9.33252H47.3679Z" fill="white"/>
<path d="M49.25 17.372C49.25 14.3091 51.4657 12.0396 54.419 12.0396C57.3722 12.0396 59.5843 14.3142 59.5843 17.372C59.5843 20.4299 57.3689 22.7068 54.4177 22.7068C51.4666 22.7068 49.25 20.4162 49.25 17.372ZM56.9668 17.372C56.9668 15.7342 55.9078 14.6065 54.419 14.6065C52.9301 14.6065 51.8666 15.7364 51.8666 17.372C51.8666 19.0077 52.9235 20.1394 54.4144 20.1394C55.9054 20.1394 56.9623 19.0067 56.9623 17.372H56.9668Z" fill="white"/>
<path d="M60.8096 17.372C60.8096 14.3091 63.0249 12.0396 65.9785 12.0396C68.932 12.0396 71.1404 14.3139 71.1404 17.372C71.1404 20.4302 68.9251 22.7068 65.9739 22.7068C63.0228 22.7068 60.8096 20.4162 60.8096 17.372ZM68.5263 17.372C68.5263 15.7342 67.4673 14.6065 65.9785 14.6065C64.4896 14.6065 63.4306 15.7364 63.4306 17.372C63.4306 19.0077 64.4872 20.1394 65.9785 20.1394C67.4697 20.1394 68.5269 19.0073 68.5269 17.372H68.5263Z" fill="white"/>
<path d="M82.3909 12.325V21.2484C82.3909 24.4096 80.5298 26.3446 77.5169 26.3446C74.9266 26.3446 73.0856 24.9405 72.6426 22.6382H75.2136C75.5061 23.5486 76.5184 24.0095 77.4726 24.0095C78.7798 24.0095 79.8653 23.1188 79.8653 21.6394V21.2653C79.2484 21.713 78.5405 22.0017 77.7988 22.108C77.057 22.2144 76.3019 22.1354 75.5942 21.8776C74.8866 21.6197 74.2461 21.1901 73.7242 20.6233C73.2023 20.0565 72.8137 19.3683 72.5894 18.6141C72.3651 17.8598 72.3116 17.0605 72.433 16.2804C72.5544 15.5003 72.8474 14.7611 73.2885 14.1224C73.7296 13.4836 74.3064 12.963 74.9726 12.6025C75.6388 12.2419 76.3758 12.0514 77.1244 12.0464C78.3004 12.0342 79.4369 12.4942 80.3039 13.3334L80.7204 12.332L82.3909 12.325ZM79.8674 17.1098C79.8674 16.4272 79.6107 15.7726 79.1537 15.2899C78.6966 14.8072 78.0768 14.5361 77.4304 14.5361C76.7841 14.5361 76.1642 14.8072 75.7072 15.2899C75.2502 15.7726 74.9934 16.4272 74.9934 17.1098C74.9934 18.6213 76.0079 19.7232 77.4304 19.7232C78.853 19.7232 79.8674 18.6236 79.8674 17.1098Z" fill="white"/>
<path d="M94.611 12.3101V22.4064H92.5836L92.3632 21.503C91.5042 22.2933 90.3999 22.7222 89.2608 22.7079C86.3807 22.7079 84.2449 20.4148 84.2449 17.3592C84.2449 14.3036 86.3894 12.0471 89.2653 12.0471C90.4208 12.0309 91.5409 12.4678 92.4089 13.2733L92.6833 12.3101H94.611ZM92.0809 17.3579C92.0783 16.8142 91.9232 16.2836 91.6353 15.8329C91.3473 15.3822 90.9394 15.0317 90.4629 14.8257C89.9865 14.6196 89.463 14.5673 88.9584 14.6752C88.4538 14.7831 87.9908 15.0465 87.6279 15.4321C87.2649 15.8176 87.0182 16.3081 86.919 16.8416C86.8198 17.3751 86.8725 17.9277 87.0704 18.4296C87.2683 18.9315 87.6025 19.3603 88.031 19.6617C88.4594 19.9632 88.9628 20.1239 89.4776 20.1234C90.1507 20.1416 90.8031 19.8768 91.2913 19.3871C91.7795 18.8974 92.0635 18.223 92.0809 17.5122C92.0809 17.4607 92.0809 17.4091 92.0809 17.3579Z" fill="white"/>
<path d="M102.942 20.0019V22.4328H101.105C99.0024 22.4328 97.7106 21.065 97.7106 18.8272V14.5196H95.9805V13.9184L99.7455 9.68115H100.239V12.3156H102.876V14.5104H100.295V18.4436C100.295 19.4192 100.826 19.9806 101.768 19.9806L102.942 20.0019Z" fill="white"/>
<path d="M114.343 12.31V22.4063H112.316L112.094 21.5029C111.235 22.2932 110.131 22.7221 108.992 22.7078C106.112 22.7078 103.976 20.4147 103.976 17.3591C103.976 14.3035 106.13 12.047 109.006 12.047C110.161 12.0323 111.28 12.4719 112.146 13.2802L112.423 12.3161L114.343 12.31ZM111.82 17.3594C111.817 16.8157 111.662 16.2851 111.374 15.8344C111.086 15.3837 110.678 15.0332 110.202 14.8272C109.725 14.6211 109.202 14.5688 108.697 14.6767C108.193 14.7846 107.73 15.048 107.367 15.4336C107.004 15.8191 106.757 16.3096 106.658 16.8431C106.559 17.3766 106.611 17.9292 106.809 18.4311C107.007 18.933 107.341 19.3618 107.77 19.6632C108.198 19.9647 108.702 20.1254 109.216 20.1249C109.55 20.134 109.881 20.0737 110.193 19.9474C110.504 19.8211 110.789 19.6313 111.03 19.3888C111.272 19.1463 111.466 18.8559 111.602 18.5342C111.737 18.2125 111.811 17.8657 111.82 17.5137C111.821 17.4606 111.821 17.4091 111.82 17.3578V17.3594Z" fill="white"/>
<path d="M15.2605 13.1302V0C15.0402 0.000166564 14.8254 0.0727699 14.6461 0.207669L2.98722 8.97521C2.84487 9.08205 2.72997 9.22444 2.65283 9.38958L11.4451 15.9992L15.2605 13.1302Z" fill="#72CAF0"/>
<path d="M19.0756 15.9991L27.8695 9.38798C27.7924 9.22278 27.6775 9.08038 27.5351 8.9736L15.8761 0.207669C15.6965 0.0724717 15.4811 -0.000145487 15.2603 2.18838e-07V13.1302L19.0756 15.9991Z" fill="#F53F52"/>
<path d="M15.2603 18.8691V31.9999C15.4811 32 15.6965 31.9274 15.8761 31.7922L27.5351 23.0263C27.6775 22.9195 27.7924 22.7771 27.8695 22.6119L19.0756 16.0007L15.2603 18.8691Z" fill="#72CAF0"/>
<path d="M19.0757 16.0025L27.8695 22.6137C27.9409 22.4611 27.9781 22.2933 27.9783 22.1232V9.88189C27.9781 9.71178 27.9409 9.54398 27.8695 9.39136L19.0757 16.0025Z" fill="#F53F52"/>
<path d="M19.0757 16.0025L27.8695 22.6137C27.9409 22.4611 27.9781 22.2933 27.9783 22.1232V9.88189C27.9781 9.71178 27.9409 9.54398 27.8695 9.39136L19.0757 16.0025Z" fill="white" fill-opacity="0.65"/>
<path d="M11.445 16.0007L2.65234 22.6119C2.72948 22.777 2.84439 22.9194 2.98673 23.0263L14.646 31.7922C14.8255 31.9274 15.0408 32 15.2616 31.9999V18.8691L11.445 16.0007Z" fill="#8E4FF6"/>
<path d="M2.65229 9.39136C2.58076 9.54392 2.54352 9.71176 2.54346 9.88189V22.1232C2.54352 22.2933 2.58076 22.4611 2.65229 22.6137L11.4449 16.0025L2.65229 9.39136Z" fill="#72CAF0"/>
<path d="M2.65229 9.39136C2.58076 9.54392 2.54352 9.71176 2.54346 9.88189V22.1232C2.54352 22.2933 2.58076 22.4611 2.65229 22.6137L11.4449 16.0025L2.65229 9.39136Z" fill="white" fill-opacity="0.45"/>
</svg>
