<svg width="20" height="20" viewBox="0 0 20 20" fill="none" xmlns="http://www.w3.org/2000/svg">
<path d="M4 7.63309L1.52804 8.99902L2 6.10502L0 4.05515L2.76355 3.6326L4 1L5.23645 3.63358L8 4.05614L6 6.10502L6.47196 9L4 7.63309Z" fill="#A6A3AF"/>
<path d="M1.52804 18.999L4 17.6331L6.47196 19L6 16.105L8 14.0561L5.23645 13.6336L4 11L2.76355 13.6326L0 14.0552L2 16.105L1.52804 18.999Z" fill="#A6A3AF"/>
<path d="M19 7H11C10.448 7 10 6.608 10 6.125V4.875C10 4.392 10.448 4 11 4H19C19.552 4 20 4.392 20 4.875V6.125C20 6.608 19.552 7 19 7Z" fill="#A6A3AF"/>
<path d="M11 17H19C19.552 17 20 16.608 20 16.125V14.875C20 14.392 19.552 14 19 14H11C10.448 14 10 14.392 10 14.875V16.125C10 16.608 10.448 17 11 17Z" fill="#A6A3AF"/>
</svg>
