<svg width="20" height="20" viewBox="0 0 20 20" fill="none" xmlns="http://www.w3.org/2000/svg">
<path d="M5 0.987929C5 0.442309 5.45229 -4.76837e-06 6.01022 -4.76837e-06H8.14933C8.70726 -4.76837e-06 9.15955 0.442308 9.15955 0.987929V3.07984C9.15955 3.62546 8.70726 4.06777 8.14933 4.06777H6.01022C5.45229 4.06777 5 3.62546 5 3.07984V0.987929Z" fill="#A19EA5"/>
<path d="M11.8507 -4.76837e-06C11.2927 -4.76837e-06 10.8404 0.442309 10.8404 0.987929V3.07984C10.8404 3.62546 11.2927 4.06777 11.8507 4.06777H13.9898C14.5477 4.06777 15 3.62546 15 3.07984V0.987929C15 0.442308 14.5477 -4.76837e-06 13.9898 -4.76837e-06H11.8507Z" fill="#A19EA5"/>
<path d="M11.8507 5.43363C11.2927 5.43363 10.8404 5.87594 10.8404 6.42156V8.51347C10.8404 9.05909 11.2927 9.5014 11.8507 9.5014H13.9898C14.5477 9.5014 15 9.05909 15 8.51347V6.42156C15 5.87594 14.5477 5.43363 13.9898 5.43363H11.8507Z" fill="#A19EA5"/>
<path d="M6.01022 5.43363C5.45229 5.43363 5 5.87594 5 6.42156V8.51347C5 9.05909 5.45229 9.5014 6.01022 9.5014H8.14933C8.70726 9.5014 9.15955 9.05909 9.15955 8.51347V6.42156C9.15955 5.87594 8.70726 5.43363 8.14933 5.43363H6.01022Z" fill="#A19EA5"/>
<path fill-rule="evenodd" clip-rule="evenodd" d="M16.4176 9.00356L15.9983 8.8117V7.08058L18.5431 8.31782C18.577 8.33251 18.6099 8.34966 18.6417 8.36927C18.8648 8.50684 19 8.74586 19 9.00275V15.4793C19 15.7697 18.8276 16.034 18.5575 16.1578L10.3284 19.9298C10.1201 20.0253 9.87879 20.0253 9.67049 19.9298L1.44246 16.1578C1.17235 16.034 1 15.7697 1 15.4793V9.00275C1 8.74585 1.1352 8.50683 1.35832 8.36926C1.38608 8.35214 1.41472 8.33689 1.44406 8.32352L3.99974 7.08099V8.75161L3.53213 8.98061L9.99948 11.9454L16.4176 9.00356ZM2.54286 10.1857L9.22803 13.2504V18.0684L2.54286 15.0037V10.1857ZM17.4571 15.0036L10.7709 18.0684V13.2504L17.4571 10.1856V15.0036Z" fill="#A19EA5"/>
</svg>
