<svg width="20" height="20" viewBox="0 0 20 20" fill="none" xmlns="http://www.w3.org/2000/svg">
<path d="M9.29784 3.21314C9.90662 3.84534 11.1883 4.39103 11.1883 4.39103C11.1883 4.39103 9.90662 4.93671 9.29784 5.56891C8.68905 6.20111 8.16358 7.53205 8.16358 7.53205C8.16358 7.53205 7.63811 6.20111 7.02932 5.56891C6.42054 4.93671 5.13889 4.39103 5.13889 4.39103C5.13889 4.39103 6.42054 3.84534 7.02932 3.21314C7.63811 2.58094 8.16358 1.25 8.16358 1.25C8.16358 1.25 8.68905 2.58094 9.29784 3.21314Z" fill="#A6A3AF"/>
<path d="M4.22068 10.7292C4.65552 11.1807 5.57099 11.5705 5.57099 11.5705C5.57099 11.5705 4.65552 11.9603 4.22068 12.4119C3.78583 12.8634 3.41049 13.8141 3.41049 13.8141C3.41049 13.8141 3.03515 12.8634 2.60031 12.4119C2.16546 11.9603 1.25 11.5705 1.25 11.5705C1.25 11.5705 2.16546 11.1807 2.60031 10.7292C3.03515 10.2776 3.41049 9.32692 3.41049 9.32692C3.41049 9.32692 3.78583 10.2776 4.22068 10.7292Z" fill="#A6A3AF"/>
<path d="M15.5093 11.3462C16.5529 12.4299 18.75 13.3654 18.75 13.3654C18.75 13.3654 16.5529 14.3008 15.5093 15.3846C14.4656 16.4684 13.5648 18.75 13.5648 18.75C13.5648 18.75 12.664 16.4684 11.6204 15.3846C10.5767 14.3008 8.37963 13.3654 8.37963 13.3654C8.37963 13.3654 10.5767 12.4299 11.6204 11.3462C12.664 10.2624 13.5648 7.98077 13.5648 7.98077C13.5648 7.98077 14.4656 10.2624 15.5093 11.3462Z" fill="#A6A3AF"/>
</svg>
