<svg width="20" height="20" viewBox="0 0 20 20" fill="none" xmlns="http://www.w3.org/2000/svg">
<path d="M20 4.51401C20.0009 4.20839 19.7421 3.96992 19.4455 4.00308L13.3552 4.68406C12.9255 4.73211 12.7535 5.2783 13.075 5.57447L15.3218 7.64491L10.9935 11.7322L7.75104 8.67036C7.3435 8.28551 6.68438 8.28551 6.27683 8.67036L0.307526 14.3072C-0.102509 14.6944 -0.102508 15.3242 0.307525 15.7114C0.71507 16.0962 1.37419 16.0962 1.78173 15.7114L7.01394 10.7706L10.2564 13.8324C10.6639 14.2173 11.323 14.2173 11.7306 13.8324L16.8206 9.02593L19.1472 11.1698C19.4686 11.466 19.9806 11.2332 19.9819 10.7903L20 4.51401Z" fill="#A19EA5"/>
</svg>
