<svg width="14" height="14" viewBox="0 0 14 14" fill="none" xmlns="http://www.w3.org/2000/svg">
<path fill-rule="evenodd" clip-rule="evenodd" d="M1.92502 8.04965H6.12499C6.41478 8.04965 6.64998 7.81445 6.64998 7.52465V1.2247C6.64998 0.934905 6.41478 0.699707 6.12499 0.699707H1.92502C1.63522 0.699707 1.40002 0.934905 1.40002 1.2247V7.52465C1.40002 7.81445 1.63522 8.04965 1.92502 8.04965ZM1.92502 13.2997H6.12499C6.41478 13.2997 6.64998 13.0645 6.64998 12.7747V9.62474C6.64998 9.33494 6.41478 9.09974 6.12499 9.09974H1.92502C1.63522 9.09974 1.40002 9.33494 1.40002 9.62474V12.7747C1.40002 13.0645 1.63522 13.2997 1.92502 13.2997ZM12.4249 4.89967H8.22497C7.93517 4.89967 7.69997 4.66447 7.69997 4.37468V1.2247C7.69997 0.934905 7.93517 0.699707 8.22497 0.699707H12.4249C12.7147 0.699707 12.9499 0.934905 12.9499 1.2247V4.37468C12.9499 4.66447 12.7147 4.89967 12.4249 4.89967ZM8.22497 13.2997H12.4249C12.7147 13.2997 12.9499 13.0645 12.9499 12.7747V6.47476C12.9499 6.18496 12.7147 5.94977 12.4249 5.94977H8.22497C7.93517 5.94977 7.69997 6.18496 7.69997 6.47476V12.7747C7.69997 13.0645 7.93517 13.2997 8.22497 13.2997Z" fill="#7F3CEE"/>
</svg>
