<svg width="17" height="16" viewBox="0 0 17 16" fill="none" xmlns="http://www.w3.org/2000/svg">
<path d="M8.09524 16C8.74286 16 9.39048 15.92 9.95714 15.76C9.63333 15.36 9.30952 14.88 9.14762 14.32C8.82381 14.4 8.41905 14.4 8.09524 14.4C4.53333 14.4 1.61905 11.52 1.61905 8C1.61905 4.48 4.53333 1.6 8.09524 1.6C8.74286 1.6 9.30952 1.68 9.87619 1.84L11.1714 0.56C10.2 0.24 9.14762 0 8.09524 0C3.64286 0 0 3.6 0 8C0 12.4 3.64286 16 8.09524 16ZM3.64286 7.6L4.77619 6.48L7.28571 8.96L14.2476 2.08L15.381 3.2L7.28571 11.2L3.64286 7.6ZM13.7619 9.6L12.7419 11.8L10.5238 12.8L12.7419 13.808L13.7619 16L14.7738 13.808L17 12.8L14.7738 11.8L13.7619 9.6Z" fill="#2C224C"/>
</svg>
